<svg xmlns="http://www.w3.org/2000/svg" width="20" height="20" viewBox="0 0 20 20" fill="currentColor"><path fill-rule="nonzero" d="M3.33333333,5.4125 C3.33333333,4.95226667 3.70643333,4.57916667 4.16666667,4.57916667 L15.8333333,4.57916667 C16.2935833,4.57916667 16.6666667,4.95226667 16.6666667,5.4125 L16.6666667,6.24583333 L16.6660833,6.24583333 L16.6345,6.24583333 L16.6029167,6.24583333 L16.5714167,6.24583333 L16.5399167,6.24583333 L16.5085,6.24583333 L16.4770833,6.24583333 L16.4456667,6.24583333 L16.4143333,6.24583333 L16.383,6.24583333 L16.3516667,6.24583333 L16.3204167,6.24583333 L16.2891667,6.24583333 L16.258,6.24583333 L16.2268333,6.24583333 L16.19575,6.24583333 L16.1645833,6.24583333 L16.1335833,6.24583333 L16.1025,6.24583333 L16.0715,6.24583333 L16.0405833,6.24583333 L16.0095833,6.24583333 L15.9786667,6.24583333 L15.9478333,6.24583333 L15.917,6.24583333 L15.8861667,6.24583333 L15.8553333,6.24583333 L15.8245833,6.24583333 L15.7939167,6.24583333 L15.7631667,6.24583333 L15.7325,6.24583333 L15.7019167,6.24583333 L15.6713333,6.24583333 L15.64075,6.24583333 L15.6101667,6.24583333 L15.5796667,6.24583333 L15.5491667,6.24583333 L15.51875,6.24583333 L15.48825,6.24583333 L15.4579167,6.24583333 L15.4275,6.24583333 L15.3971667,6.24583333 L15.3668333,6.24583333 L15.3365833,6.24583333 L15.3063333,6.24583333 L15.2760833,6.24583333 L15.2458333,6.24583333 L15.2156667,6.24583333 L15.1855,6.24583333 L15.1554167,6.24583333 L15.1253333,6.24583333 L15.09525,6.24583333 L15.0651667,6.24583333 L15.0351667,6.24583333 L15.0051667,6.24583333 L14.97525,6.24583333 L14.94525,6.24583333 L14.9153333,6.24583333 L14.8855,6.24583333 L14.8556667,6.24583333 L14.82575,6.24583333 L14.796,6.24583333 L14.7661667,6.24583333 L14.7364167,6.24583333 L14.7066667,6.24583333 L14.677,6.24583333 L14.6473333,6.24583333 L14.6176667,6.24583333 L14.588,6.24583333 L14.5584167,6.24583333 L14.5288333,6.24583333 L14.49925,6.24583333 L14.4696667,6.24583333 L14.4401667,6.24583333 L14.4106667,6.24583333 L14.38125,6.24583333 L14.35175,6.24583333 L14.3223333,6.24583333 L14.2929167,6.24583333 L14.2635833,6.24583333 L14.23425,6.24583333 L14.2048333,6.24583333 L14.1755833,6.24583333 L14.14625,6.24583333 L14.117,6.24583333 L14.08775,6.24583333 L14.0585,6.24583333 L14.0293333,6.24583333 L14.0001667,6.24583333 L13.971,6.24583333 L13.9418333,6.24583333 L13.91275,6.24583333 L13.8836667,6.24583333 L13.8545833,6.24583333 L13.8255,6.24583333 L13.7964167,6.24583333 L13.7674167,6.24583333 L13.7384167,6.24583333 L13.7095,6.24583333 L13.6805,6.24583333 L13.6515833,6.24583333 L13.6226667,6.24583333 L13.59375,6.24583333 L13.5648333,6.24583333 L13.536,6.24583333 L13.5071667,6.24583333 L13.4783333,6.24583333 L13.4495,6.24583333 L13.42075,6.24583333 L13.392,6.24583333 L13.36325,6.24583333 L13.3345,6.24583333 L13.30575,6.24583333 L13.2770833,6.24583333 L13.2484167,6.24583333 L13.21975,6.24583333 L13.1910833,6.24583333 L13.1625,6.24583333 L13.1338333,6.24583333 L13.10525,6.24583333 L13.0766667,6.24583333 L13.0480833,6.24583333 L13.0195833,6.24583333 L12.991,6.24583333 L12.9625,6.24583333 L12.934,6.24583333 L12.9055,6.24583333 L12.8770833,6.24583333 L12.8485833,6.24583333 L12.8201667,6.24583333 L12.79175,6.24583333 L12.7633333,6.24583333 L12.735,6.24583333 L12.7065833,6.24583333 L12.67825,6.24583333 L12.6498333,6.24583333 L12.6215,6.24583333 L12.59325,6.24583333 L12.5649167,6.24583333 L12.5365833,6.24583333 L12.5083333,6.24583333 L12.4800833,6.24583333 L12.4518333,6.24583333 L12.4235833,6.24583333 L12.3953333,6.24583333 L12.3671667,6.24583333 L12.3389167,6.24583333 L12.31075,6.24583333 L12.2825833,6.24583333 L12.2544167,6.24583333 L12.22625,6.24583333 L12.1980833,6.24583333 L12.17,6.24583333 L12.1418333,6.24583333 L12.11375,6.24583333 L12.0856667,6.24583333 L12.0575833,6.24583333 L12.0295,6.24583333 L12.0014167,6.24583333 L11.9734167,6.24583333 L11.9453333,6.24583333 L11.9173333,6.24583333 L11.8893333,6.24583333 L11.8613333,6.24583333 L11.8333333,6.24583333 L11.8053333,6.24583333 L11.7773333,6.24583333 L11.7493333,6.24583333 L11.7214167,6.24583333 L11.6935,6.24583333 L11.6655,6.24583333 L11.6375833,6.24583333 L11.6096667,6.24583333 L11.58175,6.24583333 L11.5538333,6.24583333 L11.5259167,6.24583333 L11.4980833,6.24583333 L11.4701667,6.24583333 L11.4423333,6.24583333 L11.4144167,6.24583333 L11.3865833,6.24583333 L11.35875,6.24583333 L11.3308333,6.24583333 L11.303,6.24583333 L11.2751667,6.24583333 L11.2474167,6.24583333 L11.2195833,6.24583333 L11.19175,6.24583333 L11.1639167,6.24583333 L11.1361667,6.24583333 L11.1083333,6.24583333 L11.0805833,6.24583333 L11.0528333,6.24583333 L11.025,6.24583333 L10.99725,6.24583333 L10.9695,6.24583333 L10.94175,6.24583333 L10.914,6.24583333 L10.88625,6.24583333 L10.8585,6.24583333 L10.83075,6.24583333 L10.803,6.24583333 L10.77525,6.24583333 L10.7475833,6.24583333 L10.7198333,6.24583333 L10.6920833,6.24583333 L10.6644167,6.24583333 L10.6366667,6.24583333 L10.609,6.24583333 L10.58125,6.24583333 L10.5535833,6.24583333 L10.5259167,6.24583333 L10.4981667,6.24583333 L10.4705,6.24583333 L10.4428333,6.24583333 L10.4150833,6.24583333 L10.3874167,6.24583333 L10.35975,6.24583333 L10.3320833,6.24583333 L10.3044167,6.24583333 L10.27675,6.24583333 L10.2490833,6.24583333 L10.2213333,6.24583333 L10.1936667,6.24583333 L10.166,6.24583333 L10.1383333,6.24583333 L10.1106667,6.24583333 L10.083,6.24583333 L10.0553333,6.24583333 L10.0276667,6.24583333 L10,6.24583333 L9.97233333,6.24583333 L9.94466667,6.24583333 L9.917,6.24583333 L9.88933333,6.24583333 L9.86166667,6.24583333 L9.834,6.24583333 L9.80633333,6.24583333 L9.77866667,6.24583333 L9.75091667,6.24583333 L9.72325,6.24583333 L9.69558333,6.24583333 L9.66791667,6.24583333 L9.64025,6.24583333 L9.61258333,6.24583333 L9.58491667,6.24583333 L9.55716667,6.24583333 L9.5295,6.24583333 L9.50183333,6.24583333 L9.47408333,6.24583333 L9.44641667,6.24583333 L9.41875,6.24583333 L9.391,6.24583333 L9.36333333,6.24583333 L9.33558333,6.24583333 L9.30791667,6.24583333 L9.28016667,6.24583333 L9.25241667,6.24583333 L9.22475,6.24583333 L9.197,6.24583333 L9.16925,6.24583333 L9.1415,6.24583333 L9.11375,6.24583333 L9.086,6.24583333 L9.05825,6.24583333 L9.0305,6.24583333 L9.00275,6.24583333 L8.975,6.24583333 L8.94716667,6.24583333 L8.91941667,6.24583333 L8.89166667,6.24583333 L8.86383333,6.24583333 L8.83608333,6.24583333 L8.80825,6.24583333 L8.78041667,6.24583333 L8.75258333,6.24583333 L8.72483333,6.24583333 L8.697,6.24583333 L8.66916667,6.24583333 L8.64125,6.24583333 L8.61341667,6.24583333 L8.58558333,6.24583333 L8.55766667,6.24583333 L8.52983333,6.24583333 L8.50191667,6.24583333 L8.47408333,6.24583333 L8.44616667,6.24583333 L8.41825,6.24583333 L8.39033333,6.24583333 L8.36241667,6.24583333 L8.3345,6.24583333 L8.30653333,6.24583333 L8.27858333,6.24583333 L8.250625,6.24583333 L8.22265833,6.24583333 L8.194675,6.24583333 L8.16669167,6.24583333 L8.13869167,6.24583333 L8.11068333,6.24583333 L8.08265833,6.24583333 L8.05463333,6.24583333 L8.02659167,6.24583333 L7.99854167,6.24583333 L7.97048333,6.24583333 L7.94240833,6.24583333 L7.914325,6.24583333 L7.88623333,6.24583333 L7.858125,6.24583333 L7.83000833,6.24583333 L7.80188333,6.24583333 L7.77374167,6.24583333 L7.74559167,6.24583333 L7.717425,6.24583333 L7.68925,6.24583333 L7.66105833,6.24583333 L7.63285833,6.24583333 L7.60465,6.24583333 L7.57641667,6.24583333 L7.54818333,6.24583333 L7.519925,6.24583333 L7.49165833,6.24583333 L7.46338333,6.24583333 L7.43509167,6.24583333 L7.40678333,6.24583333 L7.37845833,6.24583333 L7.350125,6.24583333 L7.321775,6.24583333 L7.29341667,6.24583333 L7.26503333,6.24583333 L7.23664167,6.24583333 L7.20824167,6.24583333 L7.17981667,6.24583333 L7.151375,6.24583333 L7.122925,6.24583333 L7.09445833,6.24583333 L7.065975,6.24583333 L7.037475,6.24583333 L7.00896667,6.24583333 L6.98043333,6.24583333 L6.95188333,6.24583333 L6.923325,6.24583333 L6.89474167,6.24583333 L6.86615,6.24583333 L6.83754167,6.24583333 L6.80890833,6.24583333 L6.78025833,6.24583333 L6.7516,6.24583333 L6.72291667,6.24583333 L6.69421667,6.24583333 L6.66550833,6.24583333 L6.636775,6.24583333 L6.608025,6.24583333 L6.57925,6.24583333 L6.55046667,6.24583333 L6.52165833,6.24583333 L6.49283333,6.24583333 L6.46399167,6.24583333 L6.43513333,6.24583333 L6.40625,6.24583333 L6.37735,6.24583333 L6.34843333,6.24583333 L6.31949167,6.24583333 L6.29053333,6.24583333 L6.26155833,6.24583333 L6.23255833,6.24583333 L6.20354167,6.24583333 L6.17450833,6.24583333 L6.14545,6.24583333 L6.116375,6.24583333 L6.087275,6.24583333 L6.05815,6.24583333 L6.02901667,6.24583333 L5.99985,6.24583333 L5.97066667,6.24583333 L5.94146667,6.24583333 L5.91224167,6.24583333 L5.88299167,6.24583333 L5.853725,6.24583333 L5.82443333,6.24583333 L5.795125,6.24583333 L5.76579167,6.24583333 L5.73643333,6.24583333 L5.70705,6.24583333 L5.67765,6.24583333 L5.648225,6.24583333 L5.61878333,6.24583333 L5.58930833,6.24583333 L5.55981667,6.24583333 L5.5303,6.24583333 L5.50075833,6.24583333 L5.47119167,6.24583333 L5.4416,6.24583333 L5.41199167,6.24583333 L5.38235,6.24583333 L5.35269167,6.24583333 L5.32300833,6.24583333 L5.2933,6.24583333 L5.26355833,6.24583333 L5.2338,6.24583333 L5.20401667,6.24583333 L5.17420833,6.24583333 L5.144375,6.24583333 L5.11450833,6.24583333 L5.084625,6.24583333 L5.05471667,6.24583333 L5.024775,6.24583333 L4.99480833,6.24583333 L4.964825,6.24583333 L4.93480833,6.24583333 L4.90475833,6.24583333 L4.87469167,6.24583333 L4.84459167,6.24583333 L4.814475,6.24583333 L4.78431667,6.24583333 L4.75414167,6.24583333 L4.72393333,6.24583333 L4.69370833,6.24583333 L4.66344167,6.24583333 L4.63315833,6.24583333 L4.60284167,6.24583333 L4.57249167,6.24583333 L4.54211667,6.24583333 L4.51171667,6.24583333 L4.48129167,6.24583333 L4.45083333,6.24583333 L4.42034167,6.24583333 L4.389825,6.24583333 L4.359275,6.24583333 L4.3287,6.24583333 L4.2981,6.24583333 L4.26746667,6.24583333 L4.2368,6.24583333 L4.20610833,6.24583333 L4.17538333,6.24583333 L4.144625,6.24583333 L4.11384167,6.24583333 L4.083025,6.24583333 L4.052175,6.24583333 L4.0213,6.24583333 L3.99039167,6.24583333 L3.95945,6.24583333 L3.92848333,6.24583333 L3.89748333,6.24583333 L3.86645,6.24583333 L3.83538333,6.24583333 L3.80428333,6.24583333 L3.77315833,6.24583333 L3.74199167,6.24583333 L3.7108,6.24583333 L3.679575,6.24583333 L3.64831667,6.24583333 L3.617025,6.24583333 L3.5857,6.24583333 L3.55434167,6.24583333 L3.52295,6.24583333 L3.491525,6.24583333 L3.46006667,6.24583333 L3.428575,6.24583333 L3.39705,6.24583333 L3.36549167,6.24583333 L3.3339,6.24583333 L3.33333333,6.24583333 L3.33333333,5.4125 Z M3.33333333,14.5791667 L3.33333333,8.74583333 L16.6666667,8.74583333 L16.6666667,14.5791667 C16.6666667,15.0394167 16.2935833,15.4125 15.8333333,15.4125 L4.16666667,15.4125 C3.70643333,15.4125 3.33333333,15.0394167 3.33333333,14.5791667 Z M4.16666667,2.9125 C2.78595833,2.9125 1.66666667,4.03179167 1.66666667,5.4125 L1.66666667,7.07916667 L1.66666667,7.9125 L1.66666667,14.5791667 C1.66666667,15.9599167 2.78595833,17.0791667 4.16666667,17.0791667 L15.8333333,17.0791667 C17.2140833,17.0791667 18.3333333,15.9599167 18.3333333,14.5791667 L18.3333333,7.9125 L18.3333333,7.07916667 L18.3333333,5.4125 C18.3333333,4.03179167 17.2140833,2.9125 15.8333333,2.9125 L4.16666667,2.9125 Z M11.6666667,11.2458333 C11.2064167,11.2458333 10.8333333,11.6189167 10.8333333,12.0791667 C10.8333333,12.5394167 11.2064167,12.9125 11.6666667,12.9125 L15,12.9125 C15.46025,12.9125 15.8333333,12.5394167 15.8333333,12.0791667 C15.8333333,11.6189167 15.46025,11.2458333 15,11.2458333 L11.6666667,11.2458333 Z"/></svg>
